<?xml version="1.0" standalone="no"?>
<!DOCTYPE svg PUBLIC "-//W3C//DTD SVG 20010904//EN"
 "http://www.w3.org/TR/2001/REC-SVG-20010904/DTD/svg10.dtd">
<svg version="1.0" xmlns="http://www.w3.org/2000/svg"
 width="700.000000pt" height="700.000000pt" viewBox="0 0 700.000000 700.000000"
 preserveAspectRatio="xMidYMid meet">
<metadata>
Created by potrace 1.14, written by Peter Selinger 2001-2017
</metadata>
<g transform="translate(0.000000,700.000000) scale(0.100000,-0.100000)"
fill="#000000" stroke="none">
<path d="M3378 6415 c-2 -1 -48 -5 -103 -9 -55 -3 -120 -9 -145 -12 -45 -6
-278 -48 -315 -58 -410 -103 -772 -278 -1105 -535 -224 -173 -453 -416 -621
-661 -241 -350 -429 -835 -475 -1225 -4 -27 -8 -52 -9 -55 -8 -13 -19 -227
-19 -360 0 -225 11 -345 50 -545 155 -815 649 -1523 1360 -1953 324 -195 731
-341 1079 -387 28 -4 61 -9 75 -11 108 -17 415 -23 589 -11 57 4 107 9 110 11
3 2 33 6 66 10 33 3 114 18 180 31 160 34 146 30 260 66 849 266 1528 893
1855 1713 91 229 144 432 184 706 26 176 26 538 1 730 -55 409 -190 799 -395
1140 -167 278 -403 553 -640 745 -52 42 -104 84 -115 93 -55 44 -263 176 -364
231 -346 185 -717 297 -1121 336 -64 7 -377 15 -382 10z m298 -589 c84 -6 211
-22 235 -30 8 -3 32 -8 54 -11 43 -6 203 -47 271 -70 672 -224 1212 -749 1454
-1415 42 -114 86 -268 100 -352 5 -29 11 -62 14 -73 2 -11 7 -51 11 -90 4 -38
9 -83 11 -100 5 -37 4 -348 -1 -390 -2 -16 -6 -55 -10 -85 -8 -68 -14 -110
-20 -130 -2 -8 -7 -31 -10 -50 -3 -19 -8 -43 -11 -52 -3 -9 -7 -26 -9 -39 -8
-38 -36 -131 -65 -214 -148 -419 -409 -783 -755 -1055 -50 -38 -94 -74 -100
-78 -41 -33 -230 -143 -320 -187 -265 -129 -490 -192 -820 -230 -54 -7 -364
-7 -405 -1 -14 2 -50 7 -80 10 -451 54 -900 251 -1239 546 -123 107 -183 170
-331 346 -10 12 -54 76 -98 143 -212 320 -342 693 -377 1081 -6 72 -7 363 -1
395 2 11 7 52 11 90 21 214 118 538 225 750 312 617 846 1051 1510 1224 63 16
131 32 150 35 19 3 68 10 108 16 146 23 307 28 498 16z"/>
<path d="M3500 4376 l0 -876 -615 -615 c-338 -338 -615 -619 -615 -623 0 -20
232 -207 315 -253 133 -74 264 -134 369 -168 106 -34 154 -47 255 -66 103 -20
367 -27 487 -13 136 16 311 59 449 112 85 32 291 144 375 204 112 80 304 267
381 372 165 224 264 450 320 729 28 138 34 421 13 561 -37 246 -127 494 -250
686 -98 154 -251 326 -384 433 -36 28 -71 56 -78 62 -7 6 -50 33 -95 62 -253
157 -534 247 -827 263 l-100 6 0 -876z"/>
</g>
</svg>
